<mxfile host="app.diagrams.net" modified="2024-03-14T10:00:02.575Z" agent="Mozilla/5.0 (Windows NT 10.0; Win64; x64) AppleWebKit/537.36 (KHTML, like Gecko) Chrome/122.0.0.0 Safari/537.36 Edg/122.0.0.0" etag="tasidj_Lqcw-8T6PBMvx" version="24.0.2" type="github">
  <diagram name="PÃ¡gina-1" id="4emK51Z0ZKHE-jvGS1fE">
    <mxGraphModel dx="2658" dy="824" grid="1" gridSize="10" guides="1" tooltips="1" connect="1" arrows="1" fold="1" page="1" pageScale="1" pageWidth="827" pageHeight="1169" math="0" shadow="0">
      <root>
        <mxCell id="0" />
        <mxCell id="1" parent="0" />
        <mxCell id="_UUUGhVSVMvwSzUCFkuM-1" value="Ticket Owner" style="rounded=1;whiteSpace=wrap;html=1;" parent="1" vertex="1">
          <mxGeometry x="20" y="10" width="90" height="30" as="geometry" />
        </mxCell>
        <mxCell id="_UUUGhVSVMvwSzUCFkuM-2" value="" style="endArrow=none;html=1;rounded=0;entryX=0.5;entryY=1;entryDx=0;entryDy=0;" parent="1" target="_UUUGhVSVMvwSzUCFkuM-1" edge="1">
          <mxGeometry width="50" height="50" relative="1" as="geometry">
            <mxPoint x="60" y="800" as="sourcePoint" />
            <mxPoint x="440" y="280" as="targetPoint" />
          </mxGeometry>
        </mxCell>
        <mxCell id="_UUUGhVSVMvwSzUCFkuM-4" value="" style="endArrow=classic;html=1;rounded=0;entryX=0.083;entryY=0.25;entryDx=0;entryDy=0;entryPerimeter=0;" parent="1" target="_UUUGhVSVMvwSzUCFkuM-10" edge="1">
          <mxGeometry width="50" height="50" relative="1" as="geometry">
            <mxPoint x="60" y="80" as="sourcePoint" />
            <mxPoint x="160" y="80" as="targetPoint" />
          </mxGeometry>
        </mxCell>
        <mxCell id="_UUUGhVSVMvwSzUCFkuM-5" value="Validate Ticket" style="text;html=1;align=center;verticalAlign=middle;resizable=0;points=[];autosize=1;strokeColor=none;fillColor=none;" parent="1" vertex="1">
          <mxGeometry x="65" y="50" width="100" height="30" as="geometry" />
        </mxCell>
        <mxCell id="_UUUGhVSVMvwSzUCFkuM-6" value="&amp;nbsp;&amp;lt;&amp;lt;interface&amp;gt;&amp;gt;&lt;div&gt;:Validation Machine&lt;/div&gt;" style="rounded=1;whiteSpace=wrap;html=1;" parent="1" vertex="1">
          <mxGeometry x="190" y="10" width="100" height="30" as="geometry" />
        </mxCell>
        <mxCell id="_UUUGhVSVMvwSzUCFkuM-7" value="" style="endArrow=none;html=1;rounded=0;entryX=0.5;entryY=1;entryDx=0;entryDy=0;" parent="1" edge="1">
          <mxGeometry width="50" height="50" relative="1" as="geometry">
            <mxPoint x="240" y="840" as="sourcePoint" />
            <mxPoint x="234.5" y="40" as="targetPoint" />
          </mxGeometry>
        </mxCell>
        <mxCell id="_UUUGhVSVMvwSzUCFkuM-8" value="" style="curved=1;endArrow=classic;html=1;rounded=0;" parent="1" edge="1">
          <mxGeometry width="50" height="50" relative="1" as="geometry">
            <mxPoint x="230" y="90" as="sourcePoint" />
            <mxPoint x="230" y="120" as="targetPoint" />
            <Array as="points">
              <mxPoint x="260" y="90" />
              <mxPoint x="280" y="100" />
              <mxPoint x="290" y="120" />
              <mxPoint x="260" y="120" />
            </Array>
          </mxGeometry>
        </mxCell>
        <mxCell id="_UUUGhVSVMvwSzUCFkuM-10" value="Check if readable&lt;div&gt;&lt;br&gt;&lt;/div&gt;" style="text;html=1;align=center;verticalAlign=middle;resizable=0;points=[];autosize=1;strokeColor=none;fillColor=none;" parent="1" vertex="1">
          <mxGeometry x="230" y="70" width="120" height="40" as="geometry" />
        </mxCell>
        <mxCell id="_UUUGhVSVMvwSzUCFkuM-11" value="" style="shape=actor;whiteSpace=wrap;html=1;" parent="1" vertex="1">
          <mxGeometry y="15" width="20" height="20" as="geometry" />
        </mxCell>
        <mxCell id="_UUUGhVSVMvwSzUCFkuM-12" value="" style="endArrow=none;html=1;rounded=0;" parent="1" edge="1">
          <mxGeometry width="50" height="50" relative="1" as="geometry">
            <mxPoint x="40" y="280" as="sourcePoint" />
            <mxPoint x="40" y="120" as="targetPoint" />
          </mxGeometry>
        </mxCell>
        <mxCell id="_UUUGhVSVMvwSzUCFkuM-13" value="" style="endArrow=none;html=1;rounded=0;" parent="1" edge="1">
          <mxGeometry width="50" height="50" relative="1" as="geometry">
            <mxPoint x="40" y="120" as="sourcePoint" />
            <mxPoint x="500" y="120" as="targetPoint" />
          </mxGeometry>
        </mxCell>
        <mxCell id="_UUUGhVSVMvwSzUCFkuM-14" value="alt" style="rounded=0;whiteSpace=wrap;html=1;" parent="1" vertex="1">
          <mxGeometry x="40" y="120" width="20" height="20" as="geometry" />
        </mxCell>
        <mxCell id="_UUUGhVSVMvwSzUCFkuM-16" value="[ticket not readable]" style="text;html=1;align=center;verticalAlign=middle;resizable=0;points=[];autosize=1;strokeColor=none;fillColor=none;" parent="1" vertex="1">
          <mxGeometry x="55" y="115" width="130" height="30" as="geometry" />
        </mxCell>
        <mxCell id="_UUUGhVSVMvwSzUCFkuM-18" value="" style="curved=1;endArrow=classic;html=1;rounded=0;" parent="1" edge="1">
          <mxGeometry width="50" height="50" relative="1" as="geometry">
            <mxPoint x="230" y="140" as="sourcePoint" />
            <mxPoint x="230" y="170" as="targetPoint" />
            <Array as="points">
              <mxPoint x="260" y="140" />
              <mxPoint x="280" y="150" />
              <mxPoint x="290" y="170" />
              <mxPoint x="260" y="170" />
            </Array>
          </mxGeometry>
        </mxCell>
        <mxCell id="_UUUGhVSVMvwSzUCFkuM-19" value="Display not readable" style="text;html=1;align=center;verticalAlign=middle;resizable=0;points=[];autosize=1;strokeColor=none;fillColor=none;" parent="1" vertex="1">
          <mxGeometry x="240" y="120" width="130" height="30" as="geometry" />
        </mxCell>
        <mxCell id="_UUUGhVSVMvwSzUCFkuM-20" value="" style="endArrow=none;dashed=1;html=1;dashPattern=1 3;strokeWidth=2;rounded=0;" parent="1" edge="1">
          <mxGeometry width="50" height="50" relative="1" as="geometry">
            <mxPoint x="40" y="190" as="sourcePoint" />
            <mxPoint x="500" y="190" as="targetPoint" />
          </mxGeometry>
        </mxCell>
        <mxCell id="_UUUGhVSVMvwSzUCFkuM-22" value="" style="endArrow=classic;html=1;rounded=0;" parent="1" edge="1">
          <mxGeometry width="50" height="50" relative="1" as="geometry">
            <mxPoint x="240" y="180" as="sourcePoint" />
            <mxPoint x="60" y="180" as="targetPoint" />
          </mxGeometry>
        </mxCell>
        <mxCell id="_UUUGhVSVMvwSzUCFkuM-23" value="(not readable)" style="text;html=1;align=center;verticalAlign=middle;resizable=0;points=[];autosize=1;strokeColor=none;fillColor=none;" parent="1" vertex="1">
          <mxGeometry x="80" y="160" width="100" height="30" as="geometry" />
        </mxCell>
        <mxCell id="_UUUGhVSVMvwSzUCFkuM-24" value="&amp;lt;&amp;lt;controller&amp;gt;&amp;gt;&lt;div&gt;:Controller&lt;/div&gt;&lt;div&gt;Enter Subway&lt;/div&gt;" style="rounded=1;whiteSpace=wrap;html=1;" parent="1" vertex="1">
          <mxGeometry x="370" y="10" width="100" height="40" as="geometry" />
        </mxCell>
        <mxCell id="_UUUGhVSVMvwSzUCFkuM-25" value="" style="endArrow=none;html=1;rounded=0;entryX=0.5;entryY=1;entryDx=0;entryDy=0;" parent="1" target="_UUUGhVSVMvwSzUCFkuM-24" edge="1">
          <mxGeometry width="50" height="50" relative="1" as="geometry">
            <mxPoint x="420" y="921.142839704241" as="sourcePoint" />
            <mxPoint x="75" y="50" as="targetPoint" />
          </mxGeometry>
        </mxCell>
        <mxCell id="_UUUGhVSVMvwSzUCFkuM-26" value="" style="endArrow=classic;html=1;rounded=0;" parent="1" edge="1">
          <mxGeometry width="50" height="50" relative="1" as="geometry">
            <mxPoint x="230" y="220" as="sourcePoint" />
            <mxPoint x="420" y="220" as="targetPoint" />
          </mxGeometry>
        </mxCell>
        <mxCell id="_UUUGhVSVMvwSzUCFkuM-27" value="Check if expired" style="text;html=1;align=center;verticalAlign=middle;resizable=0;points=[];autosize=1;strokeColor=none;fillColor=none;" parent="1" vertex="1">
          <mxGeometry x="235" y="220" width="110" height="30" as="geometry" />
        </mxCell>
        <mxCell id="_UUUGhVSVMvwSzUCFkuM-28" value=": Ticket" style="rounded=1;whiteSpace=wrap;html=1;" parent="1" vertex="1">
          <mxGeometry x="530" y="10" width="100" height="40" as="geometry" />
        </mxCell>
        <mxCell id="_UUUGhVSVMvwSzUCFkuM-29" value="" style="endArrow=classic;html=1;rounded=0;" parent="1" edge="1">
          <mxGeometry width="50" height="50" relative="1" as="geometry">
            <mxPoint x="420" y="240" as="sourcePoint" />
            <mxPoint x="580" y="240" as="targetPoint" />
          </mxGeometry>
        </mxCell>
        <mxCell id="_UUUGhVSVMvwSzUCFkuM-30" value="" style="endArrow=none;html=1;rounded=0;entryX=0.5;entryY=1;entryDx=0;entryDy=0;" parent="1" target="_UUUGhVSVMvwSzUCFkuM-28" edge="1">
          <mxGeometry width="50" height="50" relative="1" as="geometry">
            <mxPoint x="580" y="830" as="sourcePoint" />
            <mxPoint x="440" y="190" as="targetPoint" />
          </mxGeometry>
        </mxCell>
        <mxCell id="_UUUGhVSVMvwSzUCFkuM-31" value="Get ticket date&amp;nbsp;" style="text;html=1;align=center;verticalAlign=middle;resizable=0;points=[];autosize=1;strokeColor=none;fillColor=none;" parent="1" vertex="1">
          <mxGeometry x="430" y="218" width="100" height="30" as="geometry" />
        </mxCell>
        <mxCell id="_UUUGhVSVMvwSzUCFkuM-32" value="" style="endArrow=classic;html=1;rounded=0;" parent="1" edge="1">
          <mxGeometry width="50" height="50" relative="1" as="geometry">
            <mxPoint x="580" y="260" as="sourcePoint" />
            <mxPoint x="420" y="260" as="targetPoint" />
          </mxGeometry>
        </mxCell>
        <mxCell id="_UUUGhVSVMvwSzUCFkuM-33" value="Return date" style="text;html=1;align=center;verticalAlign=middle;resizable=0;points=[];autosize=1;strokeColor=none;fillColor=none;" parent="1" vertex="1">
          <mxGeometry x="445" y="258" width="90" height="30" as="geometry" />
        </mxCell>
        <mxCell id="_UUUGhVSVMvwSzUCFkuM-34" value="" style="endArrow=none;html=1;rounded=0;" parent="1" edge="1">
          <mxGeometry width="50" height="50" relative="1" as="geometry">
            <mxPoint x="49.5" y="460" as="sourcePoint" />
            <mxPoint x="49.5" y="300" as="targetPoint" />
          </mxGeometry>
        </mxCell>
        <mxCell id="_UUUGhVSVMvwSzUCFkuM-35" value="" style="endArrow=none;html=1;rounded=0;" parent="1" edge="1">
          <mxGeometry width="50" height="50" relative="1" as="geometry">
            <mxPoint x="50" y="300" as="sourcePoint" />
            <mxPoint x="690" y="300" as="targetPoint" />
          </mxGeometry>
        </mxCell>
        <mxCell id="_UUUGhVSVMvwSzUCFkuM-36" value="alt" style="rounded=0;whiteSpace=wrap;html=1;" parent="1" vertex="1">
          <mxGeometry x="50" y="300" width="20" height="20" as="geometry" />
        </mxCell>
        <mxCell id="_UUUGhVSVMvwSzUCFkuM-37" value="[expired]" style="text;html=1;align=center;verticalAlign=middle;resizable=0;points=[];autosize=1;strokeColor=none;fillColor=none;" parent="1" vertex="1">
          <mxGeometry x="60" y="295" width="70" height="30" as="geometry" />
        </mxCell>
        <mxCell id="_UUUGhVSVMvwSzUCFkuM-39" value="" style="endArrow=classic;html=1;rounded=0;" parent="1" edge="1">
          <mxGeometry width="50" height="50" relative="1" as="geometry">
            <mxPoint x="420" y="330" as="sourcePoint" />
            <mxPoint x="240" y="330" as="targetPoint" />
          </mxGeometry>
        </mxCell>
        <mxCell id="_UUUGhVSVMvwSzUCFkuM-40" value="Display message ticket expired" style="text;html=1;align=center;verticalAlign=middle;resizable=0;points=[];autosize=1;strokeColor=none;fillColor=none;" parent="1" vertex="1">
          <mxGeometry x="235" y="300" width="190" height="30" as="geometry" />
        </mxCell>
        <mxCell id="_UUUGhVSVMvwSzUCFkuM-42" value="" style="endArrow=classic;html=1;rounded=0;" parent="1" edge="1">
          <mxGeometry width="50" height="50" relative="1" as="geometry">
            <mxPoint x="230" y="350" as="sourcePoint" />
            <mxPoint x="70" y="350" as="targetPoint" />
          </mxGeometry>
        </mxCell>
        <mxCell id="_UUUGhVSVMvwSzUCFkuM-43" value="[readable]" style="text;html=1;align=center;verticalAlign=middle;resizable=0;points=[];autosize=1;strokeColor=none;fillColor=none;" parent="1" vertex="1">
          <mxGeometry x="60" y="190" width="80" height="30" as="geometry" />
        </mxCell>
        <mxCell id="_UUUGhVSVMvwSzUCFkuM-44" value="(ticket expired)" style="text;html=1;align=center;verticalAlign=middle;resizable=0;points=[];autosize=1;strokeColor=none;fillColor=none;" parent="1" vertex="1">
          <mxGeometry x="85" y="330" width="100" height="30" as="geometry" />
        </mxCell>
        <mxCell id="_UUUGhVSVMvwSzUCFkuM-45" value="" style="endArrow=none;dashed=1;html=1;dashPattern=1 3;strokeWidth=2;rounded=0;" parent="1" edge="1">
          <mxGeometry width="50" height="50" relative="1" as="geometry">
            <mxPoint x="70" y="370" as="sourcePoint" />
            <mxPoint x="750" y="370" as="targetPoint" />
          </mxGeometry>
        </mxCell>
        <mxCell id="_UUUGhVSVMvwSzUCFkuM-46" value="[not expired]" style="text;html=1;align=center;verticalAlign=middle;resizable=0;points=[];autosize=1;strokeColor=none;fillColor=none;" parent="1" vertex="1">
          <mxGeometry x="65" y="368" width="90" height="30" as="geometry" />
        </mxCell>
        <mxCell id="_UUUGhVSVMvwSzUCFkuM-49" value="" style="endArrow=classic;html=1;rounded=0;" parent="1" edge="1">
          <mxGeometry width="50" height="50" relative="1" as="geometry">
            <mxPoint x="420" y="400" as="sourcePoint" />
            <mxPoint x="580" y="400" as="targetPoint" />
          </mxGeometry>
        </mxCell>
        <mxCell id="_UUUGhVSVMvwSzUCFkuM-50" value="Get balance" style="text;html=1;align=center;verticalAlign=middle;resizable=0;points=[];autosize=1;strokeColor=none;fillColor=none;" parent="1" vertex="1">
          <mxGeometry x="445" y="380" width="90" height="30" as="geometry" />
        </mxCell>
        <mxCell id="_UUUGhVSVMvwSzUCFkuM-51" value="" style="endArrow=classic;html=1;rounded=0;" parent="1" edge="1">
          <mxGeometry width="50" height="50" relative="1" as="geometry">
            <mxPoint x="580" y="420" as="sourcePoint" />
            <mxPoint x="420" y="420" as="targetPoint" />
          </mxGeometry>
        </mxCell>
        <mxCell id="_UUUGhVSVMvwSzUCFkuM-52" value="Return Balance" style="text;html=1;align=center;verticalAlign=middle;resizable=0;points=[];autosize=1;strokeColor=none;fillColor=none;" parent="1" vertex="1">
          <mxGeometry x="435" y="410" width="110" height="30" as="geometry" />
        </mxCell>
        <mxCell id="_UUUGhVSVMvwSzUCFkuM-53" value="" style="endArrow=none;html=1;rounded=0;" parent="1" edge="1">
          <mxGeometry width="50" height="50" relative="1" as="geometry">
            <mxPoint x="60" y="640" as="sourcePoint" />
            <mxPoint x="60" y="480" as="targetPoint" />
          </mxGeometry>
        </mxCell>
        <mxCell id="_UUUGhVSVMvwSzUCFkuM-54" value="" style="endArrow=none;html=1;rounded=0;" parent="1" edge="1">
          <mxGeometry width="50" height="50" relative="1" as="geometry">
            <mxPoint x="60" y="480" as="sourcePoint" />
            <mxPoint x="700" y="480" as="targetPoint" />
          </mxGeometry>
        </mxCell>
        <mxCell id="_UUUGhVSVMvwSzUCFkuM-55" value="alt" style="rounded=0;whiteSpace=wrap;html=1;" parent="1" vertex="1">
          <mxGeometry x="60" y="480" width="20" height="20" as="geometry" />
        </mxCell>
        <mxCell id="_UUUGhVSVMvwSzUCFkuM-56" value="[balance &amp;lt; min]" style="text;html=1;align=center;verticalAlign=middle;resizable=0;points=[];autosize=1;strokeColor=none;fillColor=none;" parent="1" vertex="1">
          <mxGeometry x="75" y="475" width="110" height="30" as="geometry" />
        </mxCell>
        <mxCell id="_UUUGhVSVMvwSzUCFkuM-58" value="" style="endArrow=classic;html=1;rounded=0;" parent="1" edge="1">
          <mxGeometry width="50" height="50" relative="1" as="geometry">
            <mxPoint x="420" y="520" as="sourcePoint" />
            <mxPoint x="240" y="520" as="targetPoint" />
          </mxGeometry>
        </mxCell>
        <mxCell id="_UUUGhVSVMvwSzUCFkuM-59" value="Display message not enough balance" style="text;html=1;align=center;verticalAlign=middle;resizable=0;points=[];autosize=1;strokeColor=none;fillColor=none;" parent="1" vertex="1">
          <mxGeometry x="230" y="490" width="220" height="30" as="geometry" />
        </mxCell>
        <mxCell id="_UUUGhVSVMvwSzUCFkuM-61" value="" style="endArrow=classic;html=1;rounded=0;" parent="1" edge="1">
          <mxGeometry width="50" height="50" relative="1" as="geometry">
            <mxPoint x="240" y="540" as="sourcePoint" />
            <mxPoint x="70" y="540" as="targetPoint" />
          </mxGeometry>
        </mxCell>
        <mxCell id="_UUUGhVSVMvwSzUCFkuM-62" value="(no balance)" style="text;html=1;align=center;verticalAlign=middle;resizable=0;points=[];autosize=1;strokeColor=none;fillColor=none;" parent="1" vertex="1">
          <mxGeometry x="85" y="518" width="90" height="30" as="geometry" />
        </mxCell>
        <mxCell id="_UUUGhVSVMvwSzUCFkuM-63" value="" style="endArrow=none;dashed=1;html=1;dashPattern=1 3;strokeWidth=2;rounded=0;" parent="1" edge="1">
          <mxGeometry width="50" height="50" relative="1" as="geometry">
            <mxPoint x="70" y="560" as="sourcePoint" />
            <mxPoint x="750" y="560" as="targetPoint" />
          </mxGeometry>
        </mxCell>
        <mxCell id="_UUUGhVSVMvwSzUCFkuM-65" value="" style="endArrow=none;html=1;rounded=0;" parent="1" edge="1">
          <mxGeometry width="50" height="50" relative="1" as="geometry">
            <mxPoint x="100" y="920" as="sourcePoint" />
            <mxPoint x="100" y="580" as="targetPoint" />
          </mxGeometry>
        </mxCell>
        <mxCell id="_UUUGhVSVMvwSzUCFkuM-66" value="" style="endArrow=none;html=1;rounded=0;" parent="1" edge="1">
          <mxGeometry width="50" height="50" relative="1" as="geometry">
            <mxPoint x="100" y="580" as="sourcePoint" />
            <mxPoint x="740" y="580" as="targetPoint" />
          </mxGeometry>
        </mxCell>
        <mxCell id="_UUUGhVSVMvwSzUCFkuM-67" value="par" style="rounded=0;whiteSpace=wrap;html=1;" parent="1" vertex="1">
          <mxGeometry x="100" y="585" width="20" height="20" as="geometry" />
        </mxCell>
        <mxCell id="_UUUGhVSVMvwSzUCFkuM-68" value="" style="endArrow=classic;html=1;rounded=0;" parent="1" edge="1">
          <mxGeometry width="50" height="50" relative="1" as="geometry">
            <mxPoint x="420" y="610" as="sourcePoint" />
            <mxPoint x="490" y="610" as="targetPoint" />
          </mxGeometry>
        </mxCell>
        <mxCell id="_UUUGhVSVMvwSzUCFkuM-69" value="create" style="text;html=1;align=center;verticalAlign=middle;resizable=0;points=[];autosize=1;strokeColor=none;fillColor=none;" parent="1" vertex="1">
          <mxGeometry x="420" y="588" width="60" height="30" as="geometry" />
        </mxCell>
        <mxCell id="_UUUGhVSVMvwSzUCFkuM-70" value=":Entrance" style="rounded=0;whiteSpace=wrap;html=1;" parent="1" vertex="1">
          <mxGeometry x="490" y="600" width="60" height="18" as="geometry" />
        </mxCell>
        <mxCell id="_UUUGhVSVMvwSzUCFkuM-71" value="" style="endArrow=none;dashed=1;html=1;dashPattern=1 3;strokeWidth=2;rounded=0;" parent="1" edge="1">
          <mxGeometry width="50" height="50" relative="1" as="geometry">
            <mxPoint x="100" y="630" as="sourcePoint" />
            <mxPoint x="720" y="630" as="targetPoint" />
          </mxGeometry>
        </mxCell>
        <mxCell id="_UUUGhVSVMvwSzUCFkuM-76" value="par" style="rounded=0;whiteSpace=wrap;html=1;" parent="1" vertex="1">
          <mxGeometry x="100" y="640" width="20" height="20" as="geometry" />
        </mxCell>
        <mxCell id="_UUUGhVSVMvwSzUCFkuM-77" value="" style="endArrow=classic;html=1;rounded=0;" parent="1" edge="1">
          <mxGeometry width="50" height="50" relative="1" as="geometry">
            <mxPoint x="240" y="680" as="sourcePoint" />
            <mxPoint x="240" y="680" as="targetPoint" />
          </mxGeometry>
        </mxCell>
        <mxCell id="_UUUGhVSVMvwSzUCFkuM-78" value="open door" style="text;html=1;align=center;verticalAlign=middle;resizable=0;points=[];autosize=1;strokeColor=none;fillColor=none;" parent="1" vertex="1">
          <mxGeometry x="250" y="658" width="80" height="30" as="geometry" />
        </mxCell>
        <mxCell id="_UUUGhVSVMvwSzUCFkuM-79" value="" style="curved=1;endArrow=classic;html=1;rounded=0;" parent="1" edge="1">
          <mxGeometry width="50" height="50" relative="1" as="geometry">
            <mxPoint x="240" y="750" as="sourcePoint" />
            <mxPoint x="240" y="780" as="targetPoint" />
            <Array as="points">
              <mxPoint x="270" y="750" />
              <mxPoint x="290" y="760" />
              <mxPoint x="300" y="780" />
              <mxPoint x="270" y="780" />
            </Array>
          </mxGeometry>
        </mxCell>
        <mxCell id="_UUUGhVSVMvwSzUCFkuM-80" value="detect passing" style="text;html=1;align=center;verticalAlign=middle;resizable=0;points=[];autosize=1;strokeColor=none;fillColor=none;" parent="1" vertex="1">
          <mxGeometry x="235" y="730" width="100" height="30" as="geometry" />
        </mxCell>
        <mxCell id="_UUUGhVSVMvwSzUCFkuM-81" value="" style="curved=1;endArrow=classic;html=1;rounded=0;" parent="1" edge="1">
          <mxGeometry width="50" height="50" relative="1" as="geometry">
            <mxPoint x="240" y="820" as="sourcePoint" />
            <mxPoint x="240" y="850" as="targetPoint" />
            <Array as="points">
              <mxPoint x="270" y="820" />
              <mxPoint x="290" y="830" />
              <mxPoint x="300" y="850" />
              <mxPoint x="270" y="850" />
            </Array>
          </mxGeometry>
        </mxCell>
        <mxCell id="_UUUGhVSVMvwSzUCFkuM-83" value="close doors" style="text;html=1;align=center;verticalAlign=middle;resizable=0;points=[];autosize=1;strokeColor=none;fillColor=none;" parent="1" vertex="1">
          <mxGeometry x="235" y="790" width="80" height="30" as="geometry" />
        </mxCell>
        <mxCell id="_UUUGhVSVMvwSzUCFkuM-86" value="" style="endArrow=classic;html=1;rounded=0;" parent="1" edge="1">
          <mxGeometry width="50" height="50" relative="1" as="geometry">
            <mxPoint x="100" y="720" as="sourcePoint" />
            <mxPoint x="240" y="720" as="targetPoint" />
          </mxGeometry>
        </mxCell>
        <mxCell id="_UUUGhVSVMvwSzUCFkuM-88" value="pass door" style="text;html=1;align=center;verticalAlign=middle;resizable=0;points=[];autosize=1;strokeColor=none;fillColor=none;" parent="1" vertex="1">
          <mxGeometry x="110" y="700" width="80" height="30" as="geometry" />
        </mxCell>
        <mxCell id="_UUUGhVSVMvwSzUCFkuM-91" value="&lt;span style=&quot;text-wrap: nowrap;&quot;&gt;Pre CondiÃ§oes&lt;/span&gt;&lt;div style=&quot;text-wrap: nowrap;&quot;&gt;Subway open&lt;br&gt;Owner must have ticket&lt;/div&gt;&lt;div style=&quot;text-wrap: nowrap;&quot;&gt;No sign machine is broken&lt;br&gt;.&lt;/div&gt;&lt;div style=&quot;text-wrap: nowrap;&quot;&gt;.&lt;/div&gt;&lt;div style=&quot;text-wrap: nowrap;&quot;&gt;.&lt;/div&gt;" style="rounded=0;whiteSpace=wrap;html=1;direction=west;deletable=1;backgroundOutline=0;" parent="1" vertex="1">
          <mxGeometry x="-180" y="17.5" width="160" height="95" as="geometry" />
        </mxCell>
        <mxCell id="_UUUGhVSVMvwSzUCFkuM-93" value="&amp;lt;&amp;lt;interface&amp;gt;&amp;gt;&lt;br&gt;Validation Machine" style="rounded=0;whiteSpace=wrap;html=1;" parent="1" vertex="1">
          <mxGeometry x="-740" y="105" width="120" height="60" as="geometry" />
        </mxCell>
        <mxCell id="_UUUGhVSVMvwSzUCFkuM-94" value="Controller&lt;div&gt;Enter Subway&lt;/div&gt;" style="rounded=0;whiteSpace=wrap;html=1;" parent="1" vertex="1">
          <mxGeometry x="-590" y="110" width="120" height="60" as="geometry" />
        </mxCell>
        <mxCell id="_UUUGhVSVMvwSzUCFkuM-95" value="Ticket" style="rounded=0;whiteSpace=wrap;html=1;" parent="1" vertex="1">
          <mxGeometry x="-740" y="338" width="120" height="60" as="geometry" />
        </mxCell>
        <mxCell id="_UUUGhVSVMvwSzUCFkuM-96" value="Entrance" style="rounded=0;whiteSpace=wrap;html=1;" parent="1" vertex="1">
          <mxGeometry x="-590" y="338" width="120" height="60" as="geometry" />
        </mxCell>
        <mxCell id="_UUUGhVSVMvwSzUCFkuM-97" value="Check if Expired&lt;div&gt;Check if Min Balance&lt;/div&gt;" style="rounded=0;whiteSpace=wrap;html=1;" parent="1" vertex="1">
          <mxGeometry x="-590" y="170" width="120" height="140" as="geometry" />
        </mxCell>
        <mxCell id="_UUUGhVSVMvwSzUCFkuM-98" value="read(validate)&lt;div&gt;Check If Readable&lt;/div&gt;&lt;div&gt;Display&lt;/div&gt;&lt;div&gt;Open Doors&lt;/div&gt;&lt;div&gt;Detect passing&lt;br&gt;Close dors&lt;/div&gt;" style="rounded=0;whiteSpace=wrap;html=1;" parent="1" vertex="1">
          <mxGeometry x="-740" y="165" width="120" height="140" as="geometry" />
        </mxCell>
        <mxCell id="_UUUGhVSVMvwSzUCFkuM-99" value="" style="endArrow=classic;html=1;rounded=0;" parent="1" edge="1">
          <mxGeometry width="50" height="50" relative="1" as="geometry">
            <mxPoint x="420" y="680" as="sourcePoint" />
            <mxPoint x="240" y="680" as="targetPoint" />
          </mxGeometry>
        </mxCell>
        <mxCell id="_UUUGhVSVMvwSzUCFkuM-100" value="Get Date&lt;br&gt;Get balance" style="rounded=0;whiteSpace=wrap;html=1;" parent="1" vertex="1">
          <mxGeometry x="-740" y="460" width="120" height="60" as="geometry" />
        </mxCell>
        <mxCell id="_UUUGhVSVMvwSzUCFkuM-102" value="" style="rounded=0;whiteSpace=wrap;html=1;" parent="1" vertex="1">
          <mxGeometry x="-590" y="460" width="120" height="60" as="geometry" />
        </mxCell>
        <mxCell id="_UUUGhVSVMvwSzUCFkuM-104" value="Ticket Number&lt;div&gt;Date&lt;br&gt;Balance&lt;/div&gt;" style="rounded=0;whiteSpace=wrap;html=1;" parent="1" vertex="1">
          <mxGeometry x="-740" y="400" width="120" height="60" as="geometry" />
        </mxCell>
        <mxCell id="_UUUGhVSVMvwSzUCFkuM-105" value="Entry Number&lt;div&gt;Entry Hour&lt;br&gt;Entry Date&lt;/div&gt;" style="rounded=0;whiteSpace=wrap;html=1;" parent="1" vertex="1">
          <mxGeometry x="-590" y="400" width="120" height="60" as="geometry" />
        </mxCell>
        <mxCell id="_UUUGhVSVMvwSzUCFkuM-106" value="" style="html=1;labelBackgroundColor=#ffffff;startArrow=none;startFill=0;startSize=6;endArrow=classic;endFill=1;endSize=6;jettySize=auto;orthogonalLoop=1;strokeWidth=1;dashed=1;fontSize=14;rounded=0;entryX=0.5;entryY=0;entryDx=0;entryDy=0;" parent="1" target="_UUUGhVSVMvwSzUCFkuM-94" edge="1">
          <mxGeometry width="60" height="60" relative="1" as="geometry">
            <mxPoint x="-610" y="40" as="sourcePoint" />
            <mxPoint x="-820" y="330" as="targetPoint" />
          </mxGeometry>
        </mxCell>
        <mxCell id="_UUUGhVSVMvwSzUCFkuM-107" value="" style="endArrow=none;dashed=1;html=1;dashPattern=1 3;strokeWidth=2;rounded=0;entryX=0.5;entryY=0;entryDx=0;entryDy=0;" parent="1" target="_UUUGhVSVMvwSzUCFkuM-93" edge="1">
          <mxGeometry width="50" height="50" relative="1" as="geometry">
            <mxPoint x="-610" y="40" as="sourcePoint" />
            <mxPoint x="-490" y="310" as="targetPoint" />
          </mxGeometry>
        </mxCell>
        <mxCell id="_UUUGhVSVMvwSzUCFkuM-108" value="" style="html=1;labelBackgroundColor=#ffffff;startArrow=none;startFill=0;startSize=6;endArrow=classic;endFill=1;endSize=6;jettySize=auto;orthogonalLoop=1;strokeWidth=1;dashed=1;fontSize=14;rounded=0;exitX=0.5;exitY=1;exitDx=0;exitDy=0;entryX=0.5;entryY=0;entryDx=0;entryDy=0;" parent="1" source="_UUUGhVSVMvwSzUCFkuM-97" target="_UUUGhVSVMvwSzUCFkuM-95" edge="1">
          <mxGeometry width="60" height="60" relative="1" as="geometry">
            <mxPoint x="-600" y="50" as="sourcePoint" />
            <mxPoint x="-580" y="320" as="targetPoint" />
          </mxGeometry>
        </mxCell>
        <mxCell id="_UUUGhVSVMvwSzUCFkuM-109" value="" style="html=1;labelBackgroundColor=#ffffff;startArrow=none;startFill=0;startSize=6;endArrow=classic;endFill=1;endSize=6;jettySize=auto;orthogonalLoop=1;strokeWidth=1;dashed=1;fontSize=14;rounded=0;entryX=0.5;entryY=0;entryDx=0;entryDy=0;" parent="1" target="_UUUGhVSVMvwSzUCFkuM-96" edge="1">
          <mxGeometry width="60" height="60" relative="1" as="geometry">
            <mxPoint x="-530" y="310" as="sourcePoint" />
            <mxPoint x="-520" y="120" as="targetPoint" />
          </mxGeometry>
        </mxCell>
        <mxCell id="_UUUGhVSVMvwSzUCFkuM-111" value="" style="endArrow=none;html=1;rounded=0;entryX=0.5;entryY=1;entryDx=0;entryDy=0;" parent="1" target="_UUUGhVSVMvwSzUCFkuM-102" edge="1">
          <mxGeometry width="50" height="50" relative="1" as="geometry">
            <mxPoint x="-530" y="570" as="sourcePoint" />
            <mxPoint x="-490" y="310" as="targetPoint" />
          </mxGeometry>
        </mxCell>
        <mxCell id="_UUUGhVSVMvwSzUCFkuM-112" value="" style="endArrow=none;html=1;rounded=0;" parent="1" edge="1">
          <mxGeometry width="50" height="50" relative="1" as="geometry">
            <mxPoint x="-530" y="570" as="sourcePoint" />
            <mxPoint x="-690" y="570" as="targetPoint" />
          </mxGeometry>
        </mxCell>
        <mxCell id="_UUUGhVSVMvwSzUCFkuM-113" value="" style="endArrow=none;html=1;rounded=0;" parent="1" edge="1">
          <mxGeometry width="50" height="50" relative="1" as="geometry">
            <mxPoint x="-690" y="570" as="sourcePoint" />
            <mxPoint x="-690" y="520" as="targetPoint" />
          </mxGeometry>
        </mxCell>
        <mxCell id="_UUUGhVSVMvwSzUCFkuM-114" value="1" style="text;html=1;align=center;verticalAlign=middle;resizable=0;points=[];autosize=1;strokeColor=none;fillColor=none;" parent="1" vertex="1">
          <mxGeometry x="-720" y="520" width="30" height="30" as="geometry" />
        </mxCell>
        <mxCell id="_UUUGhVSVMvwSzUCFkuM-117" value="*" style="text;html=1;align=center;verticalAlign=middle;resizable=0;points=[];autosize=1;strokeColor=none;fillColor=none;" parent="1" vertex="1">
          <mxGeometry x="-530" y="520" width="30" height="30" as="geometry" />
        </mxCell>
        <mxCell id="_UUUGhVSVMvwSzUCFkuM-118" value="has" style="text;html=1;align=center;verticalAlign=middle;resizable=0;points=[];autosize=1;strokeColor=none;fillColor=none;" parent="1" vertex="1">
          <mxGeometry x="-630" y="548" width="40" height="30" as="geometry" />
        </mxCell>
      </root>
    </mxGraphModel>
  </diagram>
</mxfile>
